<svg xmlns="http://www.w3.org/2000/svg" xmlns:xlink="http://www.w3.org/1999/xlink" version="1.1" x="0px" y="0px" viewBox="0 0 1024 1280" style="enable-background:new 0 0 1024 1024;" xml:space="preserve"><g><g><g><path d="M522.1,905.6c-14.1-6.2-28.2-12.4-42.3-18.6c-33.8-14.9-67.6-29.8-101.5-44.7     c-40.7-18-81.5-35.9-122.2-53.9c-35.4-15.6-70.7-31.2-106.1-46.7c-17.1-7.5-34-16-51.4-22.7c-0.3-0.1-0.5-0.2-0.7-0.3     c3.3,5.8,6.6,11.5,9.9,17.3c0-15.5,0-31,0-46.6c0-37.3,0-74.5,0-111.8c0-44.9,0-89.8,0-134.7c0-38.8,0-77.7,0-116.5     c0-18.9,0.8-38,0-56.9c0-0.3,0-0.5,0-0.8c-10,5.8-20.1,11.5-30.1,17.3c14.1,6.2,28.2,12.4,42.3,18.6     c33.8,14.9,67.6,29.8,101.5,44.7c40.7,18,81.5,35.9,122.2,53.9c35.4,15.6,70.7,31.2,106.1,46.7c17.1,7.5,34,16,51.4,22.7     c0.3,0.1,0.5,0.2,0.7,0.3c-3.3-5.8-6.6-11.5-9.9-17.3c0,15.5,0,31,0,46.6c0,37.3,0,74.5,0,111.8c0,44.9,0,89.8,0,134.7     c0,38.8,0,77.7,0,116.5c0,19-0.5,38,0,56.9c0,0.3,0,0.5,0,0.8c0,10.5,9.2,20.5,20,20c10.8-0.5,20-8.8,20-20c0-15.5,0-31,0-46.6     c0-37.3,0-74.5,0-111.8c0-44.9,0-89.8,0-134.7c0-38.8,0-77.7,0-116.5c0-19,0.5-38,0-56.9c0-0.3,0-0.5,0-0.8     c0-6.4-3.7-14.5-9.9-17.3c-14.1-6.2-28.2-12.4-42.3-18.6c-33.8-14.9-67.6-29.8-101.5-44.7c-40.7-18-81.5-35.9-122.2-53.9     c-35.4-15.6-70.7-31.2-106.1-46.7c-17.1-7.6-34.3-15.2-51.4-22.7c-0.2-0.1-0.5-0.2-0.7-0.3c-6.8-3-13.5-3.9-20.2,0     c-6.1,3.6-9.9,10.2-9.9,17.3c0,15.5,0,31,0,46.6c0,37.3,0,74.5,0,111.8c0,44.9,0,89.8,0,134.7c0,38.8,0,77.7,0,116.5     c0,19-0.5,38,0,56.9c0,0.3,0,0.5,0,0.8c0,6.4,3.7,14.5,9.9,17.3c14.1,6.2,28.2,12.4,42.3,18.6c33.8,14.9,67.6,29.8,101.5,44.7     c40.7,18,81.5,35.9,122.2,53.9c35.4,15.6,70.7,31.2,106.1,46.7c17.1,7.6,34.3,15.2,51.4,22.7c0.2,0.1,0.5,0.2,0.7,0.3     c9.5,4.2,21.9,3.1,27.4-7.2C533.9,924.3,532.3,910.1,522.1,905.6z"/></g></g><g><g><path d="M926.1,718.7c-14.1,6.2-28.2,12.4-42.3,18.6c-33.8,14.9-67.6,29.8-101.5,44.7     c-40.7,18-81.5,35.9-122.2,53.9c-35.4,15.6-70.7,31.2-106.1,46.7c-17.1,7.5-34.6,14.5-51.4,22.7c-0.2,0.1-0.5,0.2-0.7,0.3     c10,5.8,20.1,11.5,30.1,17.3c0-15.5,0-31,0-46.6c0-37.3,0-74.5,0-111.8c0-44.9,0-89.8,0-134.7c0-38.8,0-77.7,0-116.5     c0-18.9,0.8-38,0-56.9c0-0.3,0-0.5,0-0.8c-3.3,5.8-6.6,11.5-9.9,17.3c14.1-6.2,28.2-12.4,42.3-18.6     c33.8-14.9,67.6-29.8,101.5-44.7c40.7-18,81.5-35.9,122.2-53.9c35.4-15.6,70.7-31.2,106.1-46.7c17.1-7.5,34.6-14.5,51.4-22.7     c0.2-0.1,0.5-0.2,0.7-0.3c-10-5.8-20.1-11.5-30.1-17.3c0,15.5,0,31,0,46.6c0,37.3,0,74.5,0,111.8c0,44.9,0,89.8,0,134.7     c0,38.8,0,77.7,0,116.5c0,19-0.5,38,0,56.9c0,0.3,0,0.5,0,0.8c0,10.5,9.2,20.5,20,20c10.8-0.5,20-8.8,20-20c0-15.5,0-31,0-46.6     c0-37.3,0-74.5,0-111.8c0-44.9,0-89.8,0-134.7c0-38.8,0-77.7,0-116.5c0-19,0.5-38,0-56.9c0-0.3,0-0.5,0-0.8     c0-7.1-3.8-13.7-9.9-17.3c-6.7-3.9-13.4-3-20.2,0c-14.1,6.2-28.2,12.4-42.3,18.6c-33.8,14.9-67.6,29.8-101.5,44.7     c-40.7,18-81.5,35.9-122.2,53.9c-35.4,15.6-70.7,31.2-106.1,46.7c-17.1,7.5-34.7,14.3-51.4,22.7c-0.2,0.1-0.5,0.2-0.7,0.3     c-6.2,2.7-9.9,10.8-9.9,17.3c0,15.5,0,31,0,46.6c0,37.3,0,74.5,0,111.8c0,44.9,0,89.8,0,134.7c0,38.8,0,77.7,0,116.5     c0,19-0.5,38,0,56.9c0,0.3,0,0.5,0,0.8c0,7.1,3.8,13.7,9.9,17.3c6.7,3.9,13.4,3,20.2,0c14.1-6.2,28.2-12.4,42.3-18.6     c33.8-14.9,67.6-29.8,101.5-44.7c40.7-18,81.5-35.9,122.2-53.9c35.4-15.6,70.7-31.2,106.1-46.7c17.1-7.5,34.7-14.3,51.4-22.7     c0.2-0.1,0.5-0.2,0.7-0.3c9.6-4.2,12.6-19,7.2-27.4C947.1,715.9,936.4,714.2,926.1,718.7z"/></g></g><g><g><path d="M926.1,251.4c-14.1,6.2-28.2,12.4-42.3,18.6c-33.8,14.9-67.6,29.8-101.5,44.7     c-40.7,18-81.5,35.9-122.2,53.9c-35.4,15.6-70.7,31.2-106.1,46.7c-17.1,7.5-34.6,14.6-51.4,22.7c-0.2,0.1-0.5,0.2-0.7,0.3     c6.7,0,13.5,0,20.2,0c-14.1-6.2-28.2-12.4-42.3-18.6c-33.8-14.9-67.6-29.8-101.5-44.7c-40.7-18-81.5-35.9-122.2-53.9     c-35.4-15.6-70.7-31.2-106.1-46.7c-17.1-7.5-34-15.8-51.4-22.7c-0.3-0.1-0.5-0.2-0.7-0.3c-1.6,12.2-3.2,24.4-4.8,36.6     c14.1-5.6,28.2-11.1,42.3-16.7c33.7-13.3,67.5-26.6,101.2-40c40.8-16.1,81.6-32.2,122.4-48.3c35.4-14,70.8-28,106.2-41.9     c11.6-4.6,23.2-9.1,34.7-13.7c5.5-2.2,11.3-4.1,16.6-6.6c0.2-0.1,0.5-0.2,0.7-0.3c-3.5,0-7.1,0-10.6,0     c14.1,5.6,28.2,11.1,42.3,16.7c33.7,13.3,67.5,26.6,101.2,40c40.8,16.1,81.6,32.2,122.4,48.3c35.4,14,70.8,28,106.2,41.9     c17.1,6.7,34,14.4,51.4,20.3c0.2,0.1,0.5,0.2,0.7,0.3c9.8,3.9,22.4-4.2,24.6-14c2.6-11.5-3.5-20.5-14-24.6     c-14.1-5.6-28.2-11.1-42.3-16.7c-33.9-13.4-67.8-26.8-101.6-40.1c-40.9-16.2-81.9-32.3-122.8-48.5     c-35.3-13.9-70.6-27.9-105.9-41.8c-16.9-6.7-33.7-14.3-50.9-20.1c-7-2.4-11.7-0.1-17.7,2.3c-8.8,3.5-17.6,7-26.4,10.4     c-31.9,12.6-63.9,25.2-95.8,37.8c-40.7,16.1-81.5,32.2-122.2,48.3c-36.8,14.5-73.5,29-110.3,43.6c-20.1,7.9-40.2,15.9-60.2,23.8     c-0.9,0.4-1.8,0.7-2.8,1.1c-7.6,3-13.2,8.1-14.3,16.6c-1,7.2,2.4,16.8,9.5,19.9c14.2,6.2,28.4,12.5,42.5,18.7c34,15,68,30,102,45     c40.9,18,81.8,36,122.7,54.1c35.2,15.5,70.4,31,105.7,46.6c16.9,7.4,33.8,15,50.7,22.3c7.7,3.3,13.7,3.3,21.4,0     c1.8-0.8,3.7-1.6,5.5-2.4c8.8-3.9,17.5-7.7,26.3-11.6c31.9-14.1,63.9-28.1,95.8-42.2c40.7-17.9,81.4-35.9,122.1-53.8     c36.9-16.3,73.8-32.5,110.7-48.8c20.2-8.9,40.3-17.8,60.5-26.6c0.9-0.4,1.8-0.8,2.8-1.2c9.6-4.2,12.6-19,7.2-27.4     C947.1,248.6,936.4,246.9,926.1,251.4z"/></g></g><g><g><path d="M714.2,356.7c0,38.1,0,76.2,0,114.2c0,5.4,0,10.7,0,16.1c0,10.5,9.2,20.5,20,20c10.8-0.5,20-8.8,20-20     c0-38.1,0-76.2,0-114.2c0-5.4,0-10.7,0-16.1c0-10.5-9.2-20.5-20-20C723.4,337.1,714.2,345.4,714.2,356.7L714.2,356.7z"/></g></g><g><g><path d="M304.7,201.4c14.1,5.8,28.1,11.6,42.2,17.4c33.8,13.9,67.5,27.8,101.3,41.7     c40.9,16.8,81.7,33.6,122.6,50.4c35.3,14.5,70.6,29.1,106,43.6c17.1,7,34.1,15,51.5,21.2c0.2,0.1,0.5,0.2,0.7,0.3     c9.7,4,22.4-4.3,24.6-14c2.7-11.6-3.6-20.3-14-24.6c-14.1-5.8-28.1-11.6-42.2-17.4c-33.8-13.9-67.5-27.8-101.3-41.7     c-40.9-16.8-81.7-33.6-122.6-50.4c-35.3-14.5-70.6-29.1-106-43.6c-17.1-7-34.1-15-51.5-21.2c-0.2-0.1-0.5-0.2-0.7-0.3     c-9.7-4-22.4,4.3-24.6,14C288.1,188.5,294.3,197.1,304.7,201.4L304.7,201.4z"/></g></g></g><text x="0" y="1039" fill="#000000" font-size="5px" font-weight="bold" font-family="'Helvetica Neue', Helvetica, Arial-Unicode, Arial, Sans-serif">Created by shashank singh</text><text x="0" y="1044" fill="#000000" font-size="5px" font-weight="bold" font-family="'Helvetica Neue', Helvetica, Arial-Unicode, Arial, Sans-serif">from the Noun Project</text></svg>