<svg xmlns="http://www.w3.org/2000/svg" data-name="Layer 1" viewBox="0 0 100 125" x="0px" y="0px"><title>A_10</title><path d="M4.99963,89.72V10.28a5.2878,5.2878,0,0,1,5.28-5.28H69.7196a5.28779,5.28779,0,0,1,5.28,5.28V43.18994l-4,4V10.28A1.289,1.289,0,0,0,69.7196,9H10.27966a1.289,1.289,0,0,0-1.28,1.28V89.72a1.289,1.289,0,0,0,1.28,1.28H69.7196a1.289,1.289,0,0,0,1.28-1.28V76.88l4-4V89.72a5.28779,5.28779,0,0,1-5.28,5.28H10.27966A5.2878,5.2878,0,0,1,4.99963,89.72ZM64.0127,76.80005,89.63281,51.17993l-7.78-7.77L56.23279,69.02ZM93.38892,47.42389a5.50129,5.50129,0,0,0-7.782-7.778L84.39282,40.86l7.78,7.78ZM52.0127,81.90991l7.79-1.53991a2.61449,2.61449,0,0,0,1.36011-.72l.29993-.3-7.77991-7.77991-.3.29993a2.612,2.612,0,0,0-.72,1.36l-1.54,7.79A.75957.75957,0,0,0,52.0127,81.90991ZM29.43042,23.30157A.43449.43449,0,0,0,28.996,22.867H17.59912a.43459.43459,0,0,0-.43457.43457V34.69843a.43459.43459,0,0,0,.43457.43457H28.996a.43449.43449,0,0,0,.43445-.43457ZM62.835,31.13281H34.49414v4H62.835ZM29.43042,44.30157A.43449.43449,0,0,0,28.996,43.867H17.59912a.43459.43459,0,0,0-.43457.43457V55.69843a.43459.43459,0,0,0,.43457.43457H28.996a.43449.43449,0,0,0,.43445-.43457ZM62.835,52.13281H34.49414v4H62.835ZM28.996,64.867H17.59912a.43459.43459,0,0,0-.43457.43457V76.69843a.43459.43459,0,0,0,.43457.43457H28.996a.43449.43449,0,0,0,.43445-.43457V65.30157A.43449.43449,0,0,0,28.996,64.867Zm5.49817,12.26581H46.835v-4H34.49414Z"/><text x="0" y="115" fill="#000000" font-size="5px" font-weight="bold" font-family="'Helvetica Neue', Helvetica, Arial-Unicode, Arial, Sans-serif">Created by Hrbon</text><text x="0" y="120" fill="#000000" font-size="5px" font-weight="bold" font-family="'Helvetica Neue', Helvetica, Arial-Unicode, Arial, Sans-serif">from the Noun Project</text></svg>